<?xml version="1.0" encoding="UTF-8"?>
<svg version="1.1" xmlns="http://www.w3.org/2000/svg" width="1024" height="1024">
<path d="M0 0 C337.92 0 675.84 0 1024 0 C1024 337.92 1024 675.84 1024 1024 C686.08 1024 348.16 1024 0 1024 C0 686.08 0 348.16 0 0 Z " fill="#FEFEFE" transform="translate(0,0)"/>
<path d="M0 0 C3.39416733 0.01156972 6.76288038 0.10905592 10.15242434 0.25574231 C13.83370237 0.38245153 17.51377238 0.33850329 21.19662106 0.31657636 C27.55912889 0.30145388 33.91293603 0.39144017 40.27325261 0.55547369 C49.46729403 0.79243342 58.65718157 0.86680172 67.85394489 0.90312544 C82.7768141 0.96640869 97.69505455 1.15885708 112.61541378 1.43390119 C127.09825298 1.7006003 141.5798296 1.90561336 156.06463253 2.02862775 C156.9592519 2.03624673 157.85387127 2.04386572 158.77560032 2.05171558 C163.2641971 2.08956504 167.75280274 2.12621176 172.24141431 2.16226077 C209.40816579 2.46230783 246.56965522 2.97254526 283.73186886 3.62164533 C283.9005735 8.80782304 284.02206926 13.99235453 284.10265744 19.18065107 C284.13629893 20.93986604 284.18213146 22.6988968 284.24108517 24.4574455 C284.76096724 40.38095748 281.59277978 49.19358165 270.76360714 61.27838361 C267.47473705 65.07153131 264.73482389 69.22276197 261.91936886 73.37164533 C255.6138525 82.3951625 255.6138525 82.3951625 252.72674191 83.13653791 C251.90730099 83.26181867 251.08786007 83.38709943 250.24358761 83.51617658 C249.32118283 83.66393537 248.39877804 83.81169416 247.4484216 83.96393049 C246.4488342 84.11910139 245.44924679 84.27427228 244.41936886 84.43414533 C206.08431202 90.82579886 167.84185444 103.13012602 135.73186886 125.62164533 C134.67612668 126.35641096 133.62038449 127.09117658 132.53265011 127.84820783 C110.68838323 143.67900816 94.8554754 162.60626539 89.73186886 189.62164533 C86.85104986 187.04677849 85.06003849 184.09757467 83.07171261 180.80133283 C82.72510586 180.22948255 82.37849911 179.65763227 82.02138913 179.06845319 C80.89922065 177.21404747 79.78370226 175.35576842 78.66936886 173.49664533 C77.90406735 172.22316014 77.13868624 170.94972279 76.37322628 169.67633283 C75.22998321 167.77364809 74.0874551 165.87055349 72.94721615 163.96606672 C70.77010324 160.33277875 68.56167802 156.72210481 66.31780636 153.12945783 C65.39329488 151.62687355 64.46881268 150.12427125 63.54436886 148.62164533 C63.11696408 147.95374982 62.68955929 147.28585432 62.24920285 146.59771955 C61.12640011 144.74664533 61.12640011 144.74664533 59.73186886 141.62164533 C60.90421084 138.26275906 62.99580606 136.10039558 65.47796261 133.60992658 C66.22714962 132.85663068 66.97633664 132.10333478 67.74822628 131.32721174 C68.54720334 130.53749982 69.34618039 129.74778791 70.16936886 128.93414533 C70.98832638 128.12123029 71.8072839 127.30831525 72.65105832 126.47076643 C78.43000328 120.78601547 84.32182067 115.58485408 90.73186886 110.62164533 C91.83373235 109.71108697 92.93249384 108.7967667 94.02874386 107.87945783 C108.67798144 95.71113952 124.84046666 85.40070487 141.73186886 76.62164533 C142.54897336 76.1967381 143.36607785 75.77183088 144.20794308 75.33404768 C171.13799379 61.51853892 200.44810142 51.55371973 230.29046261 46.32477033 C232.9845679 45.54886801 233.86888096 44.63484698 235.73186886 42.62164533 C206.60162038 42.36117008 177.47200269 42.18789261 148.34059999 42.135717 C144.89859314 42.12947555 141.45658817 42.12249349 138.01458371 42.11505353 C137.32936541 42.11358487 136.64414712 42.11211621 135.93816464 42.11060304 C124.85423891 42.08508161 113.77154936 41.99961779 102.68815298 41.89185321 C91.30862939 41.78254919 79.93049963 41.73927319 68.5503335 41.75310796 C62.16033045 41.75879483 55.77358778 41.73471395 49.38423169 41.63903844 C43.36633523 41.54987006 37.35356225 41.54078368 31.33527768 41.59241331 C29.13013974 41.59734532 26.92471224 41.57331839 24.72026837 41.51777685 C13.57129288 40.89821897 13.57129288 40.89821897 3.7938782 45.29427493 C0.07352061 49.72292255 -3.05326934 54.91733651 -4.26813114 60.62164533 C-3.39609476 65.30878747 -1.23116896 67.95867732 1.73186886 71.62164533 C2.99957568 73.74739968 4.23394137 75.89329862 5.43890011 78.05523908 C6.80504523 80.39129387 8.17326402 82.72601014 9.54436886 85.05914533 C9.91014035 85.68280988 10.27591183 86.30647443 10.6527673 86.94903791 C16.43771025 96.80860368 22.33269855 106.59713492 28.28933346 116.353701 C33.73970477 125.28472469 39.08257864 134.27307827 44.35686886 143.30914533 C51.43743343 155.4383725 58.62310507 167.5004413 65.8715173 179.53033674 C68.43992512 183.79820811 70.99812342 188.0721662 73.55657589 192.34601057 C75.44481815 195.49731115 77.3377596 198.64574344 79.23186886 201.79352033 C81.41395904 205.42005934 83.58115841 209.05454738 85.73186886 212.69977033 C95.86856138 229.76957801 108.15563574 246.11050281 123.73186886 258.62164533 C124.6277673 259.35512189 125.52366574 260.08859846 126.44671261 260.84430158 C143.61978349 274.50912847 162.51157452 285.19652269 182.73186886 293.62164533 C182.73186886 307.48164533 182.73186886 321.34164533 182.73186886 335.62164533 C166.67560885 335.84808423 150.62072828 336.03199076 134.56331074 336.13976705 C127.10621668 336.19115751 119.65019087 336.26111441 112.19378293 336.37603986 C105.68858984 336.47625578 99.18417085 336.54035353 92.67822719 336.56253028 C89.23836875 336.57547902 85.80072313 336.60551917 82.36158001 336.6789459 C55.97485246 337.17991767 55.97485246 337.17991767 46.23017514 328.04184186 C44.99351353 326.84384458 44.99351353 326.84384458 43.73186886 325.62164533 C41.00287382 323.85184962 38.19431744 322.34036929 35.29436886 320.87164533 C34.58538449 320.50659894 33.87640011 320.14155256 33.14593136 319.76544416 C23.41965997 314.84487838 13.58721389 310.86942321 2.98186886 308.30914533 C2.32122433 308.14954328 1.6605798 307.98994123 0.97991574 307.82550275 C-32.41864291 300.37663702 -68.24944892 306.72541618 -97.16705692 324.80914533 C-101.61966845 327.73457792 -106.08632551 330.72330919 -110.10846698 334.22287691 C-112.77594177 335.95054345 -114.33392067 335.9919291 -117.4946326 335.98240888 C-119.08053447 335.98859487 -119.08053447 335.98859487 -120.69847476 335.99490583 C-121.85293598 335.98412 -123.00739719 335.97333417 -124.19684207 335.9622215 C-126.02651271 335.96287862 -126.02651271 335.96287862 -127.8931464 335.96354902 C-131.23393053 335.96181763 -134.57415786 335.94677725 -137.91484344 335.92582715 C-141.40752827 335.90706755 -144.90022059 335.90531048 -148.39294803 335.90175092 C-155.00504739 335.89242832 -161.61699787 335.86781172 -168.22903168 335.83770245 C-175.75737614 335.80416507 -183.28572772 335.78767411 -190.81412828 335.77261615 C-206.29889679 335.74126225 -221.78346023 335.68624762 -237.26813114 335.62164533 C-237.26813114 321.76164533 -237.26813114 307.90164533 -237.26813114 293.62164533 C-234.38063114 292.38414533 -231.49313114 291.14664533 -228.51813114 289.87164533 C-187.05805272 271.48795062 -157.83528663 242.31708494 -135.26813114 203.62164533 C-134.42793158 202.19400467 -133.58683417 200.76689191 -132.74469364 199.34039533 C-131.11339955 196.57561836 -129.48593312 193.80865136 -127.86188114 191.03961408 C-119.13796404 176.17082132 -110.33087394 161.35097763 -101.52560794 146.5302757 C-95.99301039 137.21799899 -90.47552071 127.89705988 -84.97467411 118.56598127 C-81.60994813 112.86756912 -78.20865412 107.19212091 -74.79278934 101.52423322 C-68.39727862 90.91052934 -62.12863274 80.2339391 -55.95953739 69.48712385 C-52.7906735 63.97407318 -49.60252564 58.47407983 -46.36578739 53.00055158 C-45.74952474 51.95830767 -45.13326209 50.91606376 -44.49832481 49.8422367 C-43.17638907 47.61416613 -41.83581186 45.40191727 -40.47956067 43.19415385 C-36.87009106 37.26981001 -33.63137298 31.38843725 -30.79517066 25.05696809 C-23.83033645 10.00177728 -17.98368132 0.63596802 0 0 Z " fill="#020202" transform="translate(556.2681311368942,342.37835466861725)"/>
<path d="M0 0 C41.58 0 83.16 0 126 0 C124.56542064 3.58644839 123.16640336 6.67342435 121.3046875 10.0078125 C120.49076538 11.46658813 120.49076538 11.46658813 119.66040039 12.95483398 C118.7766272 14.52406616 118.7766272 14.52406616 117.875 16.125 C117.25681396 17.22593994 116.63862793 18.32687988 116.00170898 19.46118164 C110.80792802 28.66387775 105.44652129 37.76215487 100.03466797 46.83837891 C95.45611275 54.52141253 90.95282685 62.24348184 86.5 70 C80.74670109 80.01735727 74.88684577 89.96679115 68.98046875 99.89453125 C64.42597949 107.56199182 59.94186051 115.26681093 55.5 123 C48.36200863 135.42290494 41.08069132 147.75542682 33.74609375 160.06298828 C32.17676087 162.70267991 30.61720067 165.34776785 29.0625 167.99609375 C28.25004254 169.37242094 27.43754673 170.7487255 26.625 172.125 C25.95726562 173.26195312 25.28953125 174.39890625 24.6015625 175.5703125 C23 178 23 178 21 179 C20.63648438 178.28714844 20.27296875 177.57429687 19.8984375 176.83984375 C13.39483505 164.44964729 6.47985571 157.53777321 -7 153 C-12.98082235 151.57231983 -19.0924652 150.99645474 -25.1953125 150.33300781 C-55.7201067 146.70871992 -86.38135578 138.25259415 -114.08886719 124.91894531 C-115.89672532 124.04965839 -117.71758402 123.20756057 -119.5390625 122.3671875 C-148.64877638 108.51497883 -175.18857424 86.99714359 -193 60 C-193.64195312 59.04222656 -194.28390625 58.08445312 -194.9453125 57.09765625 C-198.78191894 50.9642473 -201.59902682 44.49780651 -204.3125 37.8125 C-204.81946411 36.56496948 -204.81946411 36.56496948 -205.33666992 35.29223633 C-205.65482666 34.48036865 -205.9729834 33.66850098 -206.30078125 32.83203125 C-206.58091064 32.11764893 -206.86104004 31.4032666 -207.1496582 30.66723633 C-208.36569617 26.85293405 -209.13152872 22.90812076 -210 19 C-140.7 19 -71.4 19 0 19 C0 12.73 0 6.46 0 0 Z " fill="#010302" transform="translate(394,346)"/>
<path d="M0 0 C27.39 0 54.78 0 83 0 C78.39783689 8.62905583 73.85660057 17.05453469 68.78515625 25.375 C65.12624427 31.42051735 61.56914918 37.52625675 58 43.625 C57.26335629 44.88322522 56.52670256 46.14144457 55.79003906 47.3996582 C54.66196885 49.32659747 53.5340052 51.25359885 52.40628052 53.18074036 C49.81112611 57.61545873 47.21318428 62.04853279 44.61328125 66.48046875 C37.27077681 78.99774972 29.9351358 91.51879874 22.63989258 104.0637207 C19.14156333 110.07198966 15.59193388 116.04721592 12 122 C11.484375 121.319375 10.96875 120.63875 10.4375 119.9375 C-2.78241779 104.00580421 -19.62429232 95.42204894 -39.87167358 92.38406372 C-43.59498761 91.82151716 -47.30673539 91.1901871 -51.01953125 90.5625 C-51.77273148 90.43605606 -52.5259317 90.30961212 -53.30195618 90.17933655 C-103.59677598 81.60711377 -157.72353674 64.04723811 -191 23 C-191.66 21.68 -192.32 20.36 -193 19 C-139.54 19 -86.08 19 -31 19 C-24.98552386 32.36550252 -19.06552111 45.74148834 -13.36694336 59.23974609 C-12.43156119 61.45292928 -11.49141541 63.66404484 -10.55078125 65.875 C-10.14742302 66.83635864 -10.14742302 66.83635864 -9.73591614 67.81713867 C-7.08171808 74.04338264 -4.04816936 79.90366129 -1 86 C-0.67 57.62 -0.34 29.24 0 0 Z " fill="#017C44" transform="translate(421,375)"/>
<path d="M0 0 C3.5803441 3.21828683 5.84561643 6.85217638 8.1875 11 C12.74250092 18.9022298 17.4411055 26.71177801 22.1875 34.5 C23.67123139 36.93709972 25.15421285 39.37465462 26.63671875 41.8125 C27.00484177 42.41783569 27.37296478 43.02317139 27.75224304 43.64685059 C31.35941125 49.58318012 34.93239009 55.5398244 38.5 61.5 C43.80060408 70.35338422 49.13814465 79.18364001 54.5 88 C60.47871034 97.83063869 66.41885706 107.68357082 72.3293457 117.55541992 C77.79881426 126.68277186 83.32037349 135.77794453 88.85083008 144.8684082 C93.63140949 152.72907961 98.38142188 160.60736285 103.07104492 168.52270508 C105.84773788 173.18212879 108.77916602 177.69051079 111.87426758 182.14575195 C113 184 113 184 113 186 C99.91120459 187.13026911 92.18204733 186.21229426 81.72558594 178.24023438 C78.76990946 176.11589418 75.59241925 174.44042448 72.375 172.75 C71.24835938 172.14671875 70.12171875 171.5434375 68.9609375 170.921875 C58.96920098 165.9537249 49.00016393 162.7171023 38.125 160.25 C36.86558594 159.94707031 35.60617187 159.64414062 34.30859375 159.33203125 C25.85978263 157.37829795 17.65980378 156.34746958 9 156 C8.17274414 155.96100586 7.34548828 155.92201172 6.49316406 155.88183594 C-25.75659221 154.6409121 -55.15675414 163.09101104 -82.75 179.4140625 C-83.48782715 179.85041016 -84.2256543 180.28675781 -84.98583984 180.73632812 C-87.2202811 182.09065384 -87.2202811 182.09065384 -89.9765625 184.3203125 C-94.17850154 186.65472308 -97.66047912 186.44549847 -102.375 186.25 C-103.20644531 186.23195313 -104.03789062 186.21390625 -104.89453125 186.1953125 C-106.93019074 186.14851573 -108.9652509 186.07678298 -111 186 C-109.55795559 182.11431825 -107.74340769 178.65552258 -105.6484375 175.08203125 C-105.31188141 174.5070842 -104.97532532 173.93213715 -104.62857056 173.33976746 C-103.90900886 172.11248765 -103.18772445 170.88621648 -102.46484375 169.66088867 C-101.09041331 167.32983741 -99.72615142 164.99292141 -98.36447334 162.65440083 C-97.62092994 161.39916995 -96.86254995 160.15255281 -96.0863781 158.91723156 C-93.39073519 154.58314333 -91.16634845 150.21340186 -89.08425903 145.5514679 C-80.76695211 128.18161584 -80.76695211 128.18161584 -72.81614304 124.54289436 C-64.34745366 122.50803412 -55.74565562 122.91949548 -47.11726952 123.36375761 C-43.37766621 123.52812262 -39.6373104 123.54169704 -35.89465332 123.57241821 C-28.83167329 123.65273883 -21.77935815 123.86527466 -14.72104502 124.12750494 C-6.67639653 124.41978303 1.36880767 124.56146217 9.41745663 124.69158626 C25.9511825 124.96221106 42.47422442 125.41840832 59 126 C58.16968251 124.58309201 57.33883412 123.16649514 56.5078125 121.75 C55.97343378 120.83829292 55.43905506 119.92658585 54.88848305 118.98725128 C53.70487492 116.98227885 52.51133538 114.9831388 51.30834007 112.98973846 C48.5506135 108.41187698 45.87940669 103.88624322 43.62124634 99.03918457 C40.21401038 91.79103088 40.21401038 91.79103088 33.99150848 87.15951538 C27.97564581 85.70921998 21.91234012 86.01434904 15.7734375 86.21875 C13.81476211 86.22616477 11.85604833 86.22650037 9.89736938 86.22009277 C4.76896907 86.22216026 -0.35323822 86.31966221 -5.48010254 86.43780518 C-10.72207163 86.54147258 -15.9641938 86.55388605 -21.20703125 86.57421875 C-31.47352416 86.62736593 -41.73578826 86.78144761 -52 87 C-48.89027065 81.24409473 -45.78760833 75.50257065 -42.36328125 69.92578125 C-41.71302979 68.86198242 -41.06277832 67.79818359 -40.39282227 66.70214844 C-39.70631592 65.58356445 -39.01980957 64.46498047 -38.3125 63.3125 C-36.80490691 60.84650272 -35.30021975 58.37874549 -33.796875 55.91015625 C-33.40850967 55.27246307 -33.02014435 54.6347699 -32.62001038 53.97775269 C-28.03807048 46.43913425 -23.5526569 38.84349664 -19.0625 31.25 C-12.84782322 20.74368143 -6.57947919 10.28360758 0 0 Z " fill="#FDFDFD" transform="translate(528,453)"/>
<path d="M0 0 C51.48 0 102.96 0 156 0 C167.43909389 25.42020866 167.43909389 25.42020866 172.14257812 36.29760742 C172.8114748 37.83969351 173.48449212 39.37999728 174.16113281 40.91870117 C175.16091101 43.19322017 176.14821241 45.47278353 177.1328125 47.75390625 C177.43784698 48.44126358 177.74288147 49.12862091 178.05715942 49.83680725 C180.11409068 54.65772796 180.11409068 54.65772796 179 58 C178.03513672 56.58074219 178.03513672 56.58074219 177.05078125 55.1328125 C171.38028009 46.82274196 165.60137997 38.60332351 159.6809082 30.46923828 C158.91846802 29.42098877 158.91846802 29.42098877 158.140625 28.3515625 C157.60969238 27.65836914 157.07875977 26.96517578 156.53173828 26.25097656 C155 24 155 24 153.83935547 21.27246094 C152.22036435 17.92998936 151.02042362 16.20577532 148 14 C141.79307085 12.41232866 135.20145955 12.80120657 128.84606934 12.93344116 C125.58517925 13.00082284 122.3289063 13.00959676 119.06738281 13.0012207 C114.71236222 12.99062263 110.35792137 12.99670258 106.00292969 13.01416016 C75.65055909 13.0434359 44.81677692 9.6337996 14.9375 4.375 C13.76598389 4.1689917 12.59446777 3.9629834 11.38745117 3.75073242 C3.39376681 2.26251121 3.39376681 2.26251121 0 0 Z " fill="#06BE63" transform="translate(234,394)"/>
<path d="M0 0 C21.12 0 42.24 0 64 0 C64 0.33 64 0.66 64 1 C62.89096313 1.24121582 62.89096313 1.24121582 61.75952148 1.48730469 C43.29125468 5.47113842 43.29125468 5.47113842 25.015625 10.23828125 C21.69355945 11.07740402 18.39706084 11.5689659 15 12 C14.92394531 13.25941406 14.84789062 14.51882813 14.76953125 15.81640625 C13.91421024 24.33815967 11.67046371 32.62330124 9.6875 40.9375 C8.89658043 44.27920813 8.10943082 47.6217902 7.32421875 50.96484375 C7.1313327 51.78415375 6.93844666 52.60346375 6.73971558 53.44760132 C4.67779638 62.26711442 2.82565542 71.12903428 1 80 C0.67 80 0.34 80 0 80 C0 53.6 0 27.2 0 0 Z " fill="#02BF62" transform="translate(421,376)"/>
<path d="M0 0 C21.12 0 42.24 0 64 0 C64 0.33 64 0.66 64 1 C43.54 1 23.08 1 2 1 C2.33 20.8 2.66 40.6 3 61 C3.33 61 3.66 61 4 61 C3.54240047 67.5508985 2.7899856 73.6753842 1 80 C0.67 80 0.34 80 0 80 C0 53.6 0 27.2 0 0 Z " fill="#20B66B" transform="translate(421,376)"/>
<path d="M0 0 C5.21502137 -0.26743699 10.00521226 0.55939806 15 2 C15.33 2.33 15.66 2.66 16 3 C18.58136386 3.49826326 21.15635107 3.95054937 23.75 4.375 C29.02423539 5.26713189 34.23699879 6.23483325 39.4375 7.5 C45.48663916 8.96645798 51.57369036 9.95782622 57.73413086 10.82226562 C62.32701849 11.51968712 65.90542097 12.66394857 70 15 C67.19358191 16.40320904 65.39916435 15.39677531 62.48925781 14.61474609 C58.64906671 13.66637407 54.75947985 13.06026319 50.86083984 12.40161133 C38.94276115 10.387441 27.14802354 8.03619002 15.375 5.3125 C14.71489929 5.16229401 14.05479858 5.01208801 13.37469482 4.85733032 C11.5056743 4.43019328 9.63947517 3.99076672 7.7734375 3.55078125 C6.70528809 3.29981689 5.63713867 3.04885254 4.53662109 2.7902832 C2 2 2 2 0 0 Z " fill="#116940" transform="translate(329,455)"/>
<path d="M0 0 C4.69470614 0.58328167 8.45240466 1.92066366 12.75 3.875 C17.81263836 6.14729264 22.8048594 7.96625503 28.20703125 9.26171875 C28.79871094 9.50535156 29.39039063 9.74898438 30 10 C30.33 10.99 30.66 11.98 31 13 C24.92954716 11.3716903 19.08026265 9.33095184 13.25 7 C12.62472412 6.7510498 11.99944824 6.50209961 11.35522461 6.24560547 C7.4721694 4.67176995 3.72370245 2.91896322 0 1 C0 0.67 0 0.34 0 0 Z " fill="#12673F" transform="translate(285,439)"/>
<path d="M0 0 C2.51954654 2.25890379 3.87332733 4.417897 5.25 7.5 C5.60578125 8.2734375 5.9615625 9.046875 6.328125 9.84375 C7 12 7 12 6 15 C4.79428464 13.45151269 3.61097826 11.88555794 2.4375 10.3125 C1.77621094 9.44238281 1.11492187 8.57226562 0.43359375 7.67578125 C-1 5 -1 5 -0.71484375 2.16796875 C-0.47894531 1.45253906 -0.24304688 0.73710937 0 0 Z " fill="#21A761" transform="translate(407,437)"/>
<path d="M0 0 C-1.65 2.97 -3.3 5.94 -5 9 C-6 5 -6 5 -4 1 C-8.95 1 -13.9 1 -19 1 C-19 0.67 -19 0.34 -19 0 C-16.39619004 -0.19476139 -13.79224467 -0.38108614 -11.1875 -0.5625 C-10.44951172 -0.61857422 -9.71152344 -0.67464844 -8.95117188 -0.73242188 C-5.63211484 -0.95769724 -3.18767436 -1.06255812 0 0 Z " fill="#1F764D" transform="translate(504,376)"/>
<path d="M0 0 C3.96 0 7.92 0 12 0 C12 0.66 12 1.32 12 2 C14.31 2 16.62 2 19 2 C19.33 2.66 19.66 3.32 20 4 C13.2142064 3.45136137 6.64990964 2.45732062 0 1 C0 0.67 0 0.34 0 0 Z " fill="#0BB461" transform="translate(237,395)"/>
<path d="M0 0 C6.52307692 1.47692308 6.52307692 1.47692308 8.9375 4.125 C9.288125 4.74375 9.63875 5.3625 10 6 C5.56909529 4.79157144 3.01887244 3.48331435 0 0 Z " fill="#136B43" transform="translate(264,427)"/>
<path d="M0 0 C0.99 0.33 1.98 0.66 3 1 C2.67 2.65 2.34 4.3 2 6 C1.01 5.67 0.02 5.34 -1 5 C-1.33 4.01 -1.66 3.02 -2 2 C-1.34 2 -0.68 2 0 2 C0 1.34 0 0.68 0 0 Z " fill="#0FB560" transform="translate(405,434)"/>
</svg>
